<svg width="43" height="43" viewBox="0 0 43 43" fill="none" xmlns="http://www.w3.org/2000/svg">
<g clip-path="url(#clip0_19_602)">
<path d="M21.5 43C33.3741 43 43 33.3741 43 21.5C43 9.62588 33.3741 0 21.5 0C9.62588 0 0 9.62588 0 21.5C0 33.3741 9.62588 43 21.5 43Z" fill="#52D3C4"/>
<path d="M18.2414 32.6531L8.33125 22.7429C8.19688 22.6086 8.19688 22.407 8.33125 22.2726L11.1867 19.4172C11.3211 19.2828 11.5227 19.2828 11.657 19.4172L18.4766 26.2367L31.3094 13.4039C31.4437 13.2695 31.6453 13.2695 31.7797 13.4039L34.6352 16.2594C34.7695 16.3937 34.7695 16.5953 34.6352 16.7297L18.7117 32.6531C18.5773 32.7875 18.3758 32.7875 18.2414 32.6531Z" fill="white"/>
</g>
<defs>
<clipPath id="clip0_19_602">
<rect width="43" height="43" fill="white"/>
</clipPath>
</defs>
</svg>
