<svg width="32" height="32" viewBox="0 0 32 32" fill="none" xmlns="http://www.w3.org/2000/svg">
<g clip-path="url(#clip0_19_583)">
<path d="M24 28.6625H8C6.67392 28.6625 5.40215 28.1424 4.46447 27.2165C3.52678 26.2907 3 25.035 3 23.7257V9.90253C3 8.5932 3.52678 7.3375 4.46447 6.41166C5.40215 5.48583 6.67392 4.9657 8 4.9657H24C25.3261 4.9657 26.5979 5.48583 27.5355 6.41166C28.4732 7.3375 29 8.5932 29 9.90253V23.7257C29 25.035 28.4732 26.2907 27.5355 27.2165C26.5979 28.1424 25.3261 28.6625 24 28.6625ZM8 6.94043C7.20435 6.94043 6.44129 7.25251 5.87868 7.80801C5.31607 8.36351 5 9.11693 5 9.90253V23.7257C5 24.5112 5.31607 25.2647 5.87868 25.8202C6.44129 26.3757 7.20435 26.6877 8 26.6877H24C24.7956 26.6877 25.5587 26.3757 26.1213 25.8202C26.6839 25.2647 27 24.5112 27 23.7257V9.90253C27 9.11693 26.6839 8.36351 26.1213 7.80801C25.5587 7.25251 24.7956 6.94043 24 6.94043H8Z" fill="#696AC3"/>
<path d="M24 24.713H20C19.7348 24.713 19.4804 24.609 19.2929 24.4238C19.1054 24.2387 19 23.9875 19 23.7256V19.7762C19 19.5143 19.1054 19.2632 19.2929 19.078C19.4804 18.8928 19.7348 18.7888 20 18.7888H24C24.2652 18.7888 24.5196 18.8928 24.7071 19.078C24.8946 19.2632 25 19.5143 25 19.7762V23.7256C25 23.9875 24.8946 24.2387 24.7071 24.4238C24.5196 24.609 24.2652 24.713 24 24.713ZM21 22.7383H23V20.7636H21V22.7383Z" fill="#696AC3"/>
<path d="M28 12.8646H4C3.73478 12.8646 3.48043 12.7606 3.29289 12.5754C3.10536 12.3903 3 12.1391 3 11.8773C3 11.6154 3.10536 11.3643 3.29289 11.1791C3.48043 10.9939 3.73478 10.8899 4 10.8899H28C28.2652 10.8899 28.5196 10.9939 28.7071 11.1791C28.8946 11.3643 29 11.6154 29 11.8773C29 12.1391 28.8946 12.3903 28.7071 12.5754C28.5196 12.7606 28.2652 12.8646 28 12.8646Z" fill="#696AC3"/>
<path d="M11 8.91516C10.7348 8.91516 10.4804 8.81114 10.2929 8.62597C10.1054 8.4408 10 8.18966 10 7.9278V3.97833C10 3.71647 10.1054 3.46533 10.2929 3.28016C10.4804 3.09499 10.7348 2.99097 11 2.99097C11.2652 2.99097 11.5196 3.09499 11.7071 3.28016C11.8946 3.46533 12 3.71647 12 3.97833V7.9278C12 8.18966 11.8946 8.4408 11.7071 8.62597C11.5196 8.81114 11.2652 8.91516 11 8.91516Z" fill="#696AC3"/>
<path d="M21 8.91516C20.7348 8.91516 20.4804 8.81114 20.2929 8.62597C20.1054 8.4408 20 8.18966 20 7.9278V3.97833C20 3.71647 20.1054 3.46533 20.2929 3.28016C20.4804 3.09499 20.7348 2.99097 21 2.99097C21.2652 2.99097 21.5196 3.09499 21.7071 3.28016C21.8946 3.46533 22 3.71647 22 3.97833V7.9278C22 8.18966 21.8946 8.4408 21.7071 8.62597C21.5196 8.81114 21.2652 8.91516 21 8.91516Z" fill="#696AC3"/>
</g>
<defs>
<clipPath id="clip0_19_583">
<rect width="32" height="31.5957" fill="white" transform="translate(0 0.0288086)"/>
</clipPath>
</defs>
</svg>
