<svg width="26" height="26" viewBox="0 0 26 26" fill="none" xmlns="http://www.w3.org/2000/svg">
<mask id="path-1-inside-1_19_573" fill="white">
<path d="M13 23.3351C12.6786 23.3358 12.3603 23.2731 12.0633 23.1504C11.7663 23.0277 11.4965 22.8474 11.2694 22.6201L2.90062 14.2513C2.23952 13.583 1.71802 12.7899 1.3665 11.918C1.01497 11.0462 0.84046 10.1131 0.853121 9.17318C0.859491 8.3118 1.03574 7.46014 1.37177 6.66698C1.70779 5.87382 2.197 5.15475 2.81137 4.55095C3.42573 3.94715 4.15318 3.47049 4.95205 3.14828C5.75092 2.82606 6.60551 2.66461 7.46687 2.67318C8.34365 2.66435 9.21328 2.83168 10.0242 3.16525C10.8351 3.49882 11.5707 3.99184 12.1875 4.61506L13 5.42756L13.6662 4.76131C14.8167 3.5804 16.3561 2.85641 17.9994 2.72346C19.6426 2.5905 21.2784 3.05758 22.6037 4.03818C23.3582 4.61916 23.9802 5.3542 24.4283 6.19436C24.8764 7.03452 25.1404 7.96052 25.2027 8.91068C25.2649 9.86084 25.1241 10.8134 24.7894 11.7048C24.4548 12.5963 23.934 13.4062 23.2619 14.0807L14.7306 22.6201C14.5035 22.8474 14.2337 23.0277 13.9367 23.1504C13.6397 23.2731 13.3214 23.3358 13 23.3351ZM7.43437 4.29006C6.14292 4.28874 4.90162 4.78992 3.97312 5.68756C3.49976 6.143 3.12332 6.68941 2.86641 7.29398C2.60951 7.89855 2.47743 8.5488 2.47812 9.20568C2.471 9.92825 2.60738 10.645 2.87935 11.3145C3.15132 11.984 3.55347 12.5928 4.0625 13.1057L12.4312 21.4744C12.5068 21.5506 12.5966 21.611 12.6957 21.6523C12.7947 21.6935 12.9009 21.7148 13.0081 21.7148C13.1154 21.7148 13.2216 21.6935 13.3206 21.6523C13.4196 21.611 13.5095 21.5506 13.585 21.4744L22.1244 12.9269C22.6256 12.4151 23.0129 11.803 23.2608 11.1308C23.5086 10.4587 23.6114 9.74166 23.5625 9.02693C23.5191 8.30488 23.3202 7.60072 22.9795 6.96266C22.6387 6.32459 22.1641 5.76769 21.5881 5.33006C20.5775 4.58491 19.3304 4.23258 18.0792 4.33871C16.8281 4.44484 15.6582 5.0022 14.7875 5.90693L13.5769 7.15006C13.5013 7.22621 13.4115 7.28666 13.3125 7.32791C13.2135 7.36916 13.1073 7.3904 13 7.3904C12.8927 7.3904 12.7865 7.36916 12.6875 7.32791C12.5885 7.28666 12.4987 7.22621 12.4231 7.15006L11.0419 5.76881C10.0905 4.82572 8.80645 4.29458 7.46687 4.29006H7.43437Z"/>
</mask>
<path d="M13 23.3351C12.6786 23.3358 12.3603 23.2731 12.0633 23.1504C11.7663 23.0277 11.4965 22.8474 11.2694 22.6201L2.90062 14.2513C2.23952 13.583 1.71802 12.7899 1.3665 11.918C1.01497 11.0462 0.84046 10.1131 0.853121 9.17318C0.859491 8.3118 1.03574 7.46014 1.37177 6.66698C1.70779 5.87382 2.197 5.15475 2.81137 4.55095C3.42573 3.94715 4.15318 3.47049 4.95205 3.14828C5.75092 2.82606 6.60551 2.66461 7.46687 2.67318C8.34365 2.66435 9.21328 2.83168 10.0242 3.16525C10.8351 3.49882 11.5707 3.99184 12.1875 4.61506L13 5.42756L13.6662 4.76131C14.8167 3.5804 16.3561 2.85641 17.9994 2.72346C19.6426 2.5905 21.2784 3.05758 22.6037 4.03818C23.3582 4.61916 23.9802 5.3542 24.4283 6.19436C24.8764 7.03452 25.1404 7.96052 25.2027 8.91068C25.2649 9.86084 25.1241 10.8134 24.7894 11.7048C24.4548 12.5963 23.934 13.4062 23.2619 14.0807L14.7306 22.6201C14.5035 22.8474 14.2337 23.0277 13.9367 23.1504C13.6397 23.2731 13.3214 23.3358 13 23.3351ZM7.43437 4.29006C6.14292 4.28874 4.90162 4.78992 3.97312 5.68756C3.49976 6.143 3.12332 6.68941 2.86641 7.29398C2.60951 7.89855 2.47743 8.5488 2.47812 9.20568C2.471 9.92825 2.60738 10.645 2.87935 11.3145C3.15132 11.984 3.55347 12.5928 4.0625 13.1057L12.4312 21.4744C12.5068 21.5506 12.5966 21.611 12.6957 21.6523C12.7947 21.6935 12.9009 21.7148 13.0081 21.7148C13.1154 21.7148 13.2216 21.6935 13.3206 21.6523C13.4196 21.611 13.5095 21.5506 13.585 21.4744L22.1244 12.9269C22.6256 12.4151 23.0129 11.803 23.2608 11.1308C23.5086 10.4587 23.6114 9.74166 23.5625 9.02693C23.5191 8.30488 23.3202 7.60072 22.9795 6.96266C22.6387 6.32459 22.1641 5.76769 21.5881 5.33006C20.5775 4.58491 19.3304 4.23258 18.0792 4.33871C16.8281 4.44484 15.6582 5.0022 14.7875 5.90693L13.5769 7.15006C13.5013 7.22621 13.4115 7.28666 13.3125 7.32791C13.2135 7.36916 13.1073 7.3904 13 7.3904C12.8927 7.3904 12.7865 7.36916 12.6875 7.32791C12.5885 7.28666 12.4987 7.22621 12.4231 7.15006L11.0419 5.76881C10.0905 4.82572 8.80645 4.29458 7.46687 4.29006H7.43437Z" fill="#696AC4"/>
<path d="M13 23.3351L13.0073 20.3351L13 20.335L12.9926 20.3351L13 23.3351ZM11.2694 22.6201L13.392 20.5001L13.3907 20.4987L11.2694 22.6201ZM2.90062 14.2513L0.767865 16.3611L0.773567 16.3669L0.779301 16.3726L2.90062 14.2513ZM0.853121 9.17318L3.85285 9.21359L3.85297 9.20448L3.85304 9.19537L0.853121 9.17318ZM7.46687 2.67318L7.43701 5.67304L7.46705 5.67333L7.49709 5.67303L7.46687 2.67318ZM12.1875 4.61506L10.0552 6.72533L10.0607 6.73087L10.0662 6.73638L12.1875 4.61506ZM13 5.42756L10.8787 7.54888L13 9.6702L15.1213 7.54888L13 5.42756ZM13.6662 4.76131L15.7876 6.88263L15.8014 6.86876L15.8151 6.85471L13.6662 4.76131ZM22.6037 4.03818L24.4342 1.6613L24.4113 1.6437L24.3881 1.62655L22.6037 4.03818ZM23.2619 14.0807L25.3842 16.201L25.3868 16.1984L23.2619 14.0807ZM14.7306 22.6201L12.6083 20.4997L12.608 20.5001L14.7306 22.6201ZM7.43437 4.29006L7.43131 7.29006H7.43437V4.29006ZM3.97312 5.68756L6.05312 7.84942L6.05829 7.84442L3.97312 5.68756ZM2.47812 9.20568L5.47797 9.23525L5.47814 9.21889L5.47812 9.20254L2.47812 9.20568ZM4.0625 13.1057L1.93316 15.219L1.94118 15.227L4.0625 13.1057ZM12.4312 21.4744L14.5613 19.3618L14.5526 19.3531L12.4312 21.4744ZM13.585 21.4744L11.4627 19.3541L11.455 19.3618L13.585 21.4744ZM22.1244 12.9269L24.2467 15.0472L24.2573 15.0367L24.2678 15.026L22.1244 12.9269ZM23.5625 9.02693L20.5679 9.20688L20.5686 9.2194L20.5695 9.23191L23.5625 9.02693ZM21.5881 5.33006L23.4031 2.94137L23.3859 2.92827L23.3684 2.91542L21.5881 5.33006ZM14.7875 5.90693L16.9367 7.99997L16.9429 7.9936L16.9491 7.98719L14.7875 5.90693ZM13.5769 7.15006L15.7069 9.26266L15.7165 9.25293L15.7261 9.2431L13.5769 7.15006ZM13 7.3904V4.3904V7.3904ZM12.4231 7.15006L14.5531 5.03744L14.5444 5.02874L12.4231 7.15006ZM11.0419 5.76881L13.1632 3.64747L13.1539 3.63825L11.0419 5.76881ZM7.46687 4.29006L7.477 1.29006H7.46687V4.29006ZM12.9926 20.3351C13.0668 20.3349 13.1403 20.3494 13.2088 20.3777L10.9178 25.9231C11.5803 26.1968 12.2905 26.3368 13.0073 26.335L12.9926 20.3351ZM13.2088 20.3777C13.2773 20.406 13.3396 20.4476 13.392 20.5001L9.14672 24.74C9.65332 25.2473 10.2552 25.6493 10.9178 25.9231L13.2088 20.3777ZM13.3907 20.4987L5.02194 12.13L0.779301 16.3726L9.14805 24.7414L13.3907 20.4987ZM5.03338 12.1415C4.65221 11.7562 4.35152 11.2989 4.14885 10.7962L-1.41585 13.0399C-0.915486 14.2809 -0.173164 15.4099 0.767865 16.3611L5.03338 12.1415ZM4.14885 10.7962C3.94617 10.2935 3.84555 9.75553 3.85285 9.21359L-2.14661 9.13278C-2.16463 10.4707 -1.91622 11.7989 -1.41585 13.0399L4.14885 10.7962ZM3.85304 9.19537C3.85649 8.72859 3.952 8.26708 4.13409 7.83726L-1.39056 5.4967C-1.88052 6.65321 -2.13751 7.89502 -2.1468 9.151L3.85304 9.19537ZM4.13409 7.83726C4.31618 7.40745 4.58128 7.01779 4.91421 6.69059L0.708525 2.41131C-0.187282 3.29171 -0.900596 4.34019 -1.39056 5.4967L4.13409 7.83726ZM4.91421 6.69059C5.24713 6.3634 5.64133 6.1051 6.07424 5.93049L3.82986 0.366065C2.66503 0.835894 1.60433 1.53091 0.708525 2.41131L4.91421 6.69059ZM6.07424 5.93049C6.50714 5.75588 6.97024 5.66839 7.43701 5.67304L7.49673 -0.326668C6.24078 -0.339169 4.9947 -0.103763 3.82986 0.366065L6.07424 5.93049ZM7.49709 5.67303C7.97221 5.66825 8.44346 5.75892 8.88288 5.93968L11.1655 0.390823C9.98309 -0.095556 8.71509 -0.339542 7.43665 -0.326664L7.49709 5.67303ZM8.88288 5.93968C9.3223 6.12044 9.72095 6.38761 10.0552 6.72533L14.3198 2.50479C13.4205 1.59607 12.3478 0.877202 11.1655 0.390823L8.88288 5.93968ZM10.0662 6.73638L10.8787 7.54888L15.1213 3.30624L14.3088 2.49374L10.0662 6.73638ZM15.1213 7.54888L15.7876 6.88263L11.5449 2.63999L10.8787 3.30624L15.1213 7.54888ZM15.8151 6.85471C16.4593 6.1935 17.3212 5.78813 18.2413 5.71369L17.7574 -0.266772C15.391 -0.0753036 13.1741 0.967292 11.5174 2.66791L15.8151 6.85471ZM18.2413 5.71369C19.1614 5.63924 20.0773 5.90077 20.8194 6.44982L24.3881 1.62655C22.4796 0.214394 20.1239 -0.45824 17.7574 -0.266772L18.2413 5.71369ZM20.7733 6.41506C21.1901 6.73602 21.5337 7.1421 21.7813 7.60624L27.0753 4.78249C26.4266 3.56631 25.5262 2.5023 24.4342 1.6613L20.7733 6.41506ZM21.7813 7.60624C22.0289 8.07038 22.1747 8.58194 22.2091 9.10686L28.1963 8.7145C28.1061 7.33909 27.724 5.99866 27.0753 4.78249L21.7813 7.60624ZM22.2091 9.10686C22.2435 9.63178 22.1657 10.158 21.9808 10.6505L27.598 12.7592C28.0825 11.4687 28.2864 10.0899 28.1963 8.7145L22.2091 9.10686ZM21.9808 10.6505C21.7959 11.143 21.5082 11.5904 21.1369 11.963L25.3868 16.1984C26.3598 15.222 27.1136 14.0496 27.598 12.7592L21.9808 10.6505ZM21.1395 11.9604L12.6083 20.4997L16.8529 24.7404L25.3842 16.201L21.1395 11.9604ZM12.608 20.5001C12.6604 20.4476 12.7226 20.406 12.7912 20.3777L15.0822 25.9231C15.7448 25.6493 16.3467 25.2473 16.8533 24.74L12.608 20.5001ZM12.7912 20.3777C12.8597 20.3494 12.9332 20.3349 13.0073 20.3351L12.9926 26.335C13.7095 26.3368 14.4197 26.1968 15.0822 25.9231L12.7912 20.3777ZM7.43743 1.29006C5.36682 1.28795 3.37662 2.0915 1.88795 3.5307L6.05829 7.84442C6.42661 7.48835 6.91901 7.28953 7.43131 7.29006L7.43743 1.29006ZM1.89312 3.52571C1.12846 4.26142 0.520363 5.14408 0.105361 6.12069L5.62746 8.46727C5.72627 8.23474 5.87106 8.02458 6.05312 7.84941L1.89312 3.52571ZM0.105361 6.12069C-0.30964 7.0973 -0.522991 8.14771 -0.521878 9.20883L5.47812 9.20254C5.47785 8.94989 5.52865 8.69979 5.62746 8.46727L0.105361 6.12069ZM-0.521734 9.17612C-0.532768 10.2957 -0.321457 11.4063 0.0999484 12.4436L5.65875 10.1854C5.53621 9.88375 5.47477 9.5608 5.47797 9.23525L-0.521734 9.17612ZM0.0999484 12.4436C0.521354 13.4809 1.14447 14.4243 1.93318 15.219L6.19181 10.9924C5.96247 10.7613 5.78128 10.487 5.65875 10.1854L0.0999484 12.4436ZM1.94118 15.227L10.3099 23.5958L14.5526 19.3531L6.18382 10.9844L1.94118 15.227ZM10.3012 23.587C10.6557 23.9444 11.0773 24.228 11.5419 24.4216L13.8494 18.883C14.1159 18.9941 14.3579 19.1568 14.5612 19.3618L10.3012 23.587ZM11.5419 24.4216C12.0065 24.6151 12.5048 24.7148 13.0081 24.7148V18.7148C13.2969 18.7148 13.5828 18.7719 13.8494 18.883L11.5419 24.4216ZM13.0081 24.7148C13.5114 24.7148 14.0097 24.6151 14.4743 24.4216L12.1669 18.883C12.4334 18.7719 12.7194 18.7148 13.0081 18.7148V24.7148ZM14.4743 24.4216C14.9389 24.228 15.3606 23.9444 15.715 23.587L11.455 19.3618C11.6583 19.1568 11.9003 18.9941 12.1669 18.883L14.4743 24.4216ZM15.7073 23.5947L24.2467 15.0472L20.002 10.8066L11.4627 19.3541L15.7073 23.5947ZM24.2678 15.026C25.0651 14.2117 25.6812 13.238 26.0755 12.1688L20.446 10.0929C20.3446 10.368 20.1861 10.6185 19.981 10.8279L24.2678 15.026ZM26.0755 12.1688C26.4698 11.0995 26.6334 9.95892 26.5555 8.82195L20.5695 9.23191C20.5895 9.5244 20.5475 9.81782 20.446 10.0929L26.0755 12.1688ZM26.5571 8.84698C26.4878 7.69353 26.1701 6.56866 25.6257 5.54938L20.3332 8.37593C20.4704 8.63278 20.5504 8.91623 20.5679 9.20688L26.5571 8.84698ZM25.6257 5.54938C25.0813 4.5301 24.3232 3.64047 23.4031 2.94137L19.7731 7.71875C20.005 7.89491 20.196 8.11908 20.3332 8.37593L25.6257 5.54938ZM23.3684 2.91542C21.772 1.73835 19.8021 1.1818 17.8257 1.34945L18.3328 7.32798C18.8588 7.28336 19.383 7.43147 19.8078 7.7447L23.3684 2.91542ZM17.8257 1.34945C15.8493 1.5171 14.0013 2.39752 12.6259 3.82667L16.9491 7.98719C17.3151 7.60688 17.8069 7.37259 18.3328 7.32798L17.8257 1.34945ZM12.6383 3.81389L11.4276 5.05702L15.7261 9.2431L16.9367 7.99997L12.6383 3.81389ZM11.4469 5.03745C11.6502 4.83243 11.8922 4.66969 12.1587 4.55863L14.4662 10.0972C14.9308 9.90363 15.3525 9.62 15.7069 9.26266L11.4469 5.03745ZM12.1587 4.55863C12.4253 4.44757 12.7112 4.3904 13 4.3904V10.3904C13.5033 10.3904 14.0016 10.2907 14.4662 10.0972L12.1587 4.55863ZM13 4.3904C13.2888 4.3904 13.5747 4.44757 13.8413 4.55863L11.5338 10.0972C11.9984 10.2907 12.4967 10.3904 13 10.3904V4.3904ZM13.8413 4.55863C14.1078 4.66968 14.3498 4.83242 14.5531 5.03745L10.2931 9.26266C10.6475 9.62001 11.0692 9.90363 11.5338 10.0972L13.8413 4.55863ZM14.5444 5.02874L13.1632 3.64749L8.92055 7.89013L10.3018 9.27138L14.5444 5.02874ZM13.1539 3.63825C11.6432 2.14068 9.60418 1.29726 7.477 1.29008L7.45674 7.29004C8.00871 7.29191 8.53782 7.51076 8.92983 7.89936L13.1539 3.63825ZM7.46687 1.29006H7.43437V7.29006H7.46687V1.29006Z" fill="#696AC3" mask="url(#path-1-inside-1_19_573)"/>
</svg>
