<svg width="26" height="22" viewBox="0 0 26 22" fill="none" xmlns="http://www.w3.org/2000/svg">
<path d="M13 21.3351C12.6786 21.3358 12.3603 21.2731 12.0633 21.1504C11.7663 21.0277 11.4965 20.8474 11.2694 20.6201L2.90062 12.2513C2.23952 11.583 1.71802 10.7899 1.3665 9.91803C1.01497 9.0462 0.84046 8.11313 0.853121 7.17318C0.859491 6.3118 1.03574 5.46014 1.37177 4.66698C1.70779 3.87382 2.197 3.15475 2.81137 2.55095C3.42573 1.94715 4.15318 1.47049 4.95205 1.14828C5.75092 0.826057 6.60551 0.66461 7.46687 0.673184C8.34365 0.664352 9.21328 0.831683 10.0242 1.16525C10.8351 1.49882 11.5707 1.99184 12.1875 2.61506L13 3.42756L13.6662 2.76131C14.8167 1.5804 16.3561 0.856413 17.9994 0.723457C19.6426 0.590501 21.2784 1.05758 22.6037 2.03818C23.3582 2.61916 23.9802 3.3542 24.4283 4.19436C24.8764 5.03452 25.1404 5.96052 25.2027 6.91068C25.2649 7.86084 25.1241 8.81337 24.7894 9.70483C24.4548 10.5963 23.934 11.4062 23.2619 12.0807L14.7306 20.6201C14.5035 20.8474 14.2337 21.0277 13.9367 21.1504C13.6397 21.2731 13.3214 21.3358 13 21.3351ZM7.43437 2.29006C6.14292 2.28874 4.90162 2.78992 3.97312 3.68756C3.49976 4.143 3.12332 4.68941 2.86641 5.29398C2.60951 5.89855 2.47743 6.5488 2.47812 7.20568C2.471 7.92825 2.60738 8.64504 2.87935 9.31451C3.15132 9.98398 3.55347 10.5928 4.0625 11.1057L12.4312 19.4744C12.5068 19.5506 12.5966 19.611 12.6957 19.6523C12.7947 19.6935 12.9009 19.7148 13.0081 19.7148C13.1154 19.7148 13.2216 19.6935 13.3206 19.6523C13.4196 19.611 13.5095 19.5506 13.585 19.4744L22.1244 10.9269C22.6256 10.4151 23.0129 9.80298 23.2608 9.13082C23.5086 8.45866 23.6114 7.74166 23.5625 7.02693C23.5191 6.30488 23.3202 5.60072 22.9795 4.96266C22.6387 4.32459 22.1641 3.76769 21.5881 3.33006C20.5775 2.58491 19.3304 2.23258 18.0792 2.33871C16.8281 2.44484 15.6582 3.0022 14.7875 3.90693L13.5769 5.15006C13.5013 5.22621 13.4115 5.28666 13.3125 5.32791C13.2135 5.36916 13.1073 5.3904 13 5.3904C12.8927 5.3904 12.7865 5.36916 12.6875 5.32791C12.5885 5.28666 12.4987 5.22621 12.4231 5.15006L11.0419 3.76881C10.0905 2.82572 8.80645 2.29458 7.46687 2.29006H7.43437Z" fill="#F2D4B0"/>
</svg>
