<svg width="36" height="36" viewBox="0 0 36 36" fill="none" xmlns="http://www.w3.org/2000/svg">
<path d="M12.15 27.1267C17.1905 27.1267 21.2766 23.0406 21.2766 18.0001C21.2766 12.9596 17.1905 8.87354 12.15 8.87354C7.10954 8.87354 3.02344 12.9596 3.02344 18.0001C3.02344 23.0406 7.10954 27.1267 12.15 27.1267Z" stroke="#F2D4B0" stroke-width="1.2" stroke-miterlimit="10" stroke-linecap="square"/>
<path d="M23.85 27.1267C28.8905 27.1267 32.9766 23.0406 32.9766 18.0001C32.9766 12.9596 28.8905 8.87354 23.85 8.87354C18.8095 8.87354 14.7234 12.9596 14.7234 18.0001C14.7234 23.0406 18.8095 27.1267 23.85 27.1267Z" stroke="#F2D4B0" stroke-width="1.2" stroke-miterlimit="10" stroke-linecap="square"/>
<path d="M15.0539 17.0228L19.3359 12.7759" stroke="#F2D4B0" stroke-width="1.2" stroke-miterlimit="10" stroke-linecap="square"/>
<path d="M15.3211 20.6086L20.6367 15.3352" stroke="#F2D4B0" stroke-width="1.2" stroke-miterlimit="10" stroke-linecap="square"/>
<path d="M16.5586 23.1751L20.8336 18.9353" stroke="#F2D4B0" stroke-width="1.2" stroke-miterlimit="10" stroke-linecap="square"/>
</svg>
