<svg width="26" height="26" viewBox="0 0 26 26" fill="none" xmlns="http://www.w3.org/2000/svg">
<g clip-path="url(#clip0_4_41)">
<path d="M19.9062 25.1875H7.71875V0.8125H19.9062C20.014 0.8125 20.1173 0.769699 20.1935 0.693512C20.2697 0.617325 20.3125 0.513994 20.3125 0.40625C20.3125 0.298506 20.2697 0.195175 20.1935 0.118988C20.1173 0.0428012 20.014 0 19.9062 0L3.65625 0C2.68655 0 1.75657 0.385211 1.07089 1.07089C0.385211 1.75657 0 2.68655 0 3.65625L0 22.3438C0 23.3134 0.385211 24.2434 1.07089 24.9291C1.75657 25.6148 2.68655 26 3.65625 26H19.9062C20.014 26 20.1173 25.9572 20.1935 25.881C20.2697 25.8048 20.3125 25.7015 20.3125 25.5938C20.3125 25.486 20.2697 25.3827 20.1935 25.3065C20.1173 25.2303 20.014 25.1875 19.9062 25.1875ZM0.8125 22.3438V3.65625C0.8125 2.90204 1.11211 2.17872 1.64542 1.64542C2.17872 1.11211 2.90204 0.8125 3.65625 0.8125H6.90625V25.1875H3.65625C2.90204 25.1875 2.17872 24.8879 1.64542 24.3546C1.11211 23.8213 0.8125 23.098 0.8125 22.3438Z" fill="white" stroke="white" stroke-width="0.5"/>
<path d="M25.8802 12.7137L19.7864 6.6199C19.7087 6.55335 19.6087 6.51857 19.5065 6.52252C19.4042 6.52647 19.3072 6.56885 19.2349 6.64121C19.1625 6.71356 19.1202 6.81054 19.1162 6.91279C19.1123 7.01503 19.147 7.115 19.2136 7.19272L24.6127 12.5938H11.7812C11.6735 12.5938 11.5702 12.6366 11.494 12.7128C11.4178 12.789 11.375 12.8923 11.375 13.0001C11.375 13.1078 11.4178 13.2111 11.494 13.2873C11.5702 13.3635 11.6735 13.4063 11.7812 13.4063H24.6127L19.2136 18.8074C19.1711 18.8438 19.1365 18.8886 19.1121 18.939C19.0878 18.9894 19.0741 19.0443 19.0719 19.1003C19.0697 19.1562 19.0792 19.212 19.0996 19.2642C19.12 19.3163 19.151 19.3636 19.1906 19.4032C19.2302 19.4428 19.2775 19.4738 19.3296 19.4942C19.3818 19.5146 19.4376 19.5241 19.4935 19.5219C19.5495 19.5198 19.6044 19.5061 19.6548 19.4817C19.7052 19.4573 19.75 19.4227 19.7864 19.3802L25.8802 13.2865C25.9558 13.2104 25.9983 13.1074 25.9983 13.0001C25.9983 12.8927 25.9558 12.7898 25.8802 12.7137Z" fill="white" stroke="white" stroke-width="0.5"/>
</g>
<defs>
<clipPath id="clip0_4_41">
<rect width="26" height="26" fill="white"/>
</clipPath>
</defs>
</svg>
