<svg width="22" height="22" viewBox="0 0 22 22" fill="none" xmlns="http://www.w3.org/2000/svg">
<path d="M5.63209 7.04297H0.91748V21.5765H5.63209V7.04297Z" fill="#7342FB"/>
<path d="M18.4739 7.21341C18.4238 7.19773 18.3764 7.18059 18.3238 7.16579C18.2603 7.15134 18.1973 7.13928 18.1326 7.12899C17.8825 7.07867 17.608 7.04301 17.2867 7.04301C14.5383 7.04301 12.7947 9.0475 12.2205 9.82161V7.04297H7.50586V21.5765H12.2205V13.6492C12.2205 13.6492 15.7832 8.67339 17.2866 12.3277V21.5765H22V11.7691C22 9.57305 20.499 7.74321 18.4739 7.21341Z" fill="#7342FB"/>
<path d="M5.52955 2.74912C5.52955 4.02629 4.49696 5.06131 3.22363 5.06131C1.95021 5.06131 0.917664 4.02625 0.917664 2.74912C0.917664 1.47221 1.95021 0.437012 3.22363 0.437012C4.49696 0.437012 5.52955 1.47221 5.52955 2.74912Z" fill="#7342FB"/>
</svg>
