<svg width="35" height="35" viewBox="0 0 35 35" fill="none" xmlns="http://www.w3.org/2000/svg">
<path d="M17.5 34.3047C8.21875 34.3047 0.695312 26.7812 0.695312 17.5C0.695312 8.21875 8.21875 0.695312 17.5 0.695312C26.7812 0.695312 34.3047 8.21875 34.3047 17.5C34.3047 26.7812 26.7812 34.3047 17.5 34.3047ZM17.5 2.52344C9.27344 2.52344 2.52344 9.27343 2.52344 17.5C2.52344 25.7266 9.27344 32.4766 17.5 32.4766C25.7266 32.4766 32.4766 25.7266 32.4766 17.5C32.4766 9.27343 25.7266 2.52344 17.5 2.52344Z" fill="#D8D8D8"/>
<path d="M8.57031 16.5156H26.4297V18.4844H8.57031V16.5156Z" fill="#D8D8D8"/>
</svg>
