<svg width="33" height="32" viewBox="0 0 33 32" fill="none" xmlns="http://www.w3.org/2000/svg">
<path fill-rule="evenodd" clip-rule="evenodd" d="M27.4514 4.80325C24.4979 1.84638 20.5702 0.217291 16.3855 0.215576C7.76321 0.215576 0.745518 7.2327 0.742153 15.8577C0.740946 18.6149 1.46129 21.306 2.83028 23.6783L0.610962 31.7845L8.90373 29.6092C11.1886 30.8554 13.7612 31.5123 16.3793 31.5132H16.3857C16.3852 31.5132 16.3862 31.5132 16.3857 31.5132C25.0071 31.5132 32.0254 24.4954 32.029 15.8702C32.0305 11.6903 30.4049 7.76 27.4514 4.80325ZM16.3856 28.8713H16.3803C14.0473 28.8704 11.759 28.2435 9.76269 27.059L9.28797 26.7772L4.36692 28.068L5.68048 23.2701L5.3713 22.7781C4.0698 20.708 3.38242 18.3153 3.38343 15.8586C3.38623 8.68983 9.21907 2.85762 16.3909 2.85762C19.8637 2.8587 23.1283 4.21296 25.5831 6.6706C28.0379 9.12823 29.3891 12.395 29.3877 15.8691C29.3847 23.0385 23.5521 28.8713 16.3856 28.8713Z" fill="white"/>
<path fill-rule="evenodd" clip-rule="evenodd" d="M23.5175 19.1335C23.1267 18.9379 21.2049 17.9924 20.8467 17.8618C20.4884 17.7314 20.2278 17.6662 19.9673 18.0575C19.7067 18.4487 18.9576 19.3292 18.7296 19.5901C18.5016 19.8509 18.2735 19.8837 17.8828 19.6879C17.4919 19.4922 16.2325 19.0795 14.7395 17.7479C13.5775 16.7114 12.793 15.4315 12.565 15.04C12.337 14.6488 12.5407 14.4373 12.7364 14.2424C12.9122 14.0672 13.1273 13.7859 13.3228 13.5576C13.5182 13.3294 13.5833 13.1662 13.7136 12.9056C13.8439 12.6446 13.7788 12.4164 13.681 12.2208C13.5833 12.0251 12.8016 10.1012 12.4759 9.31844C12.1586 8.55638 11.8364 8.65963 11.5964 8.6475C11.3687 8.63614 11.1078 8.63379 10.8473 8.63379C10.5867 8.63379 10.1632 8.73164 9.80499 9.12286C9.44673 9.51421 8.43689 10.4599 8.43689 12.3836C8.43689 14.3076 9.83751 16.1663 10.033 16.4271C10.2283 16.6881 12.7892 20.636 16.7102 22.3291C17.6427 22.7318 18.3708 22.9723 18.9384 23.1524C19.8748 23.45 20.7269 23.4079 21.4004 23.3073C22.1514 23.1951 23.713 22.3618 24.0387 21.4488C24.3644 20.5357 24.3644 19.753 24.2667 19.5901C24.169 19.4271 23.9084 19.3292 23.5175 19.1335Z" fill="white"/>
</svg>
