<svg width="33" height="33" viewBox="0 0 33 33" fill="none" xmlns="http://www.w3.org/2000/svg">
<path d="M31.625 13.351C31.693 11.3829 31.2626 9.42957 30.3737 7.67229C29.7707 6.95124 28.9337 6.46465 28.0087 6.29729C24.1828 5.95014 20.3411 5.80786 16.5 5.87104C12.6729 5.80499 8.84495 5.94268 5.03248 6.28355C4.27873 6.42066 3.58119 6.7742 3.02498 7.30105C1.78748 8.4423 1.64998 10.3948 1.51248 12.0448C1.31298 15.0114 1.31298 17.9881 1.51248 20.9548C1.55225 21.8835 1.69053 22.8053 1.92498 23.7048C2.09077 24.3993 2.42619 25.0418 2.90123 25.5748C3.46122 26.1295 4.175 26.5032 4.94998 26.6473C7.91436 27.0132 10.9013 27.1649 13.8875 27.101C18.7 27.1698 22.9212 27.101 27.9125 26.716C28.7065 26.5808 29.4404 26.2067 30.0162 25.6435C30.4012 25.2584 30.6887 24.7871 30.855 24.2685C31.3467 22.7596 31.5882 21.1804 31.57 19.5935C31.625 18.8235 31.625 14.176 31.625 13.351ZM13.3925 20.4185V11.9073L21.5325 16.1835C19.25 17.4485 16.2387 18.8785 13.3925 20.4185Z" fill="#7342FB"/>
</svg>
